<?xml version="1.0" encoding="UTF-8" standalone="no"?>
<!-- Created with Inkscape (http://www.inkscape.org/) -->

<svg
   width="32"
   height="32"
   viewBox="0 0 32 32"
   version="1.1"
   id="svg1"
   inkscape:version="1.4 (86a8ad7, 2024-10-11)"
   sodipodi:docname="dibujo.svg"
   inkscape:export-filename="bitmap.png"
   inkscape:export-xdpi="96"
   inkscape:export-ydpi="96"
   xmlns:inkscape="http://www.inkscape.org/namespaces/inkscape"
   xmlns:sodipodi="http://sodipodi.sourceforge.net/DTD/sodipodi-0.dtd"
   xmlns:xlink="http://www.w3.org/1999/xlink"
   xmlns="http://www.w3.org/2000/svg"
   xmlns:svg="http://www.w3.org/2000/svg">
  <sodipodi:namedview
     id="namedview1"
     pagecolor="#505050"
     bordercolor="#eeeeee"
     borderopacity="1"
     inkscape:showpageshadow="false"
     inkscape:pageopacity="0"
     inkscape:pagecheckerboard="false"
     inkscape:deskcolor="#505050"
     inkscape:document-units="px"
     inkscape:zoom="18.40625"
     inkscape:cx="15.972835"
     inkscape:cy="16"
     inkscape:window-width="1280"
     inkscape:window-height="697"
     inkscape:window-x="-8"
     inkscape:window-y="-8"
     inkscape:window-maximized="1"
     inkscape:current-layer="layer1"
     showborder="true"
     borderlayer="true"
     labelstyle="default"
     inkscape:antialias-rendering="false"
     inkscape:clip-to-page="false" />
  <defs
     id="defs1">
    <linearGradient
       id="linearGradient2"
       inkscape:collect="always">
      <stop
         style="stop-color:#63452c;stop-opacity:1"
         offset="0"
         id="stop2" />
      <stop
         style="stop-color:#cdab8f;stop-opacity:1"
         offset="1"
         id="stop3" />
    </linearGradient>
    <linearGradient
       inkscape:collect="always"
       xlink:href="#linearGradient2"
       id="linearGradient3"
       x1="1016.3891"
       y1="753.86377"
       x2="1048.3892"
       y2="721.86377"
       gradientUnits="userSpaceOnUse" />
  </defs>
  <g
     inkscape:label="Capa 1"
     inkscape:groupmode="layer"
     id="layer1"
     transform="translate(-1016.3891,-721.86377)">
    <rect
       style="fill:url(#linearGradient3);stroke-width:13.0108;stroke-linejoin:round;paint-order:fill markers stroke"
       id="rect2"
       width="32"
       height="32"
       x="1016.3891"
       y="721.86377"
       ry="5.5325737" />
    <path
       id="rect2-5"
       style="fill:#ffffff;stroke-width:0.731008;stroke-linejoin:round;paint-order:fill markers stroke"
       d="m 1026.1831,728.78718 c -0.5439,0 -0.9824,0.43695 -0.9824,0.98086 v 1.21502 h -0.3844 c -2.7161,0 -4.9028,2.18663 -4.9028,4.90279 0,2.71617 2.1867,4.90281 4.9028,4.90281 h 0.3844 v 0.88364 c 0,3.46322 2.7887,6.25185 6.2519,6.25185 h 6.3387 c 3.4632,0 6.2518,-2.78863 6.2518,-6.25185 v -2.33136 -3.23859 -6.33431 c 0,-0.54391 -0.4384,-0.98086 -0.9823,-0.98086 z m 10.5301,3.66569 c 0.9622,0.80118 1.679,1.66716 2.1503,2.59793 0.4712,0.92686 0.7069,1.92637 0.7069,2.99853 0,0.59696 -0.071,1.16053 -0.2121,1.69072 -0.1414,0.5302 -0.3397,1.03093 -0.595,1.50221 -0.2514,0.47128 -0.5538,0.91114 -0.9073,1.31959 -0.3534,0.41237 -0.7422,0.79529 -1.1663,1.14875 l -0.8248,-0.81885 c 0.7698,-0.68729 1.3471,-1.43152 1.732,-2.2327 0.3848,-0.80118 0.5773,-1.64163 0.5773,-2.52135 0,-0.88758 -0.1925,-1.74374 -0.5773,-2.56849 -0.3849,-0.82474 -0.9622,-1.57879 -1.732,-2.26215 z m -11.8969,0.35641 h 0.3844 v 3.29307 2.86009 h -0.3844 c -1.7358,0 -3.0766,-1.34076 -3.0766,-3.07659 0,-1.73583 1.3408,-3.07657 3.0766,-3.07657 z m 6.3829,2.38291 c 0.1492,0 0.2887,0.0275 0.4183,0.0825 0.1296,0.055 0.2415,0.13156 0.3358,0.22974 0.094,0.0943 0.1689,0.20619 0.2238,0.33579 0.055,0.1296 0.082,0.26706 0.082,0.41237 0,0.14924 -0.027,0.28867 -0.082,0.41826 -0.055,0.12961 -0.1296,0.24153 -0.2238,0.33579 -0.094,0.0943 -0.2062,0.16888 -0.3358,0.22386 -0.1296,0.055 -0.2691,0.0825 -0.4183,0.0825 -0.1492,0 -0.2886,-0.0275 -0.4183,-0.0825 -0.1256,-0.055 -0.2376,-0.1296 -0.3357,-0.22386 -0.094,-0.0943 -0.1689,-0.20618 -0.2239,-0.33579 -0.055,-0.1296 -0.082,-0.26902 -0.082,-0.41826 0,-0.14531 0.027,-0.28277 0.082,-0.41237 0.055,-0.1296 0.1296,-0.24153 0.2239,-0.33579 0.098,-0.0982 0.2101,-0.17477 0.3357,-0.22974 0.1297,-0.055 0.2691,-0.0825 0.4183,-0.0825 z m 0,4.05891 c 0.1492,0 0.2887,0.0275 0.4183,0.0825 0.1296,0.055 0.2415,0.12961 0.3358,0.22386 0.094,0.0942 0.1689,0.20619 0.2238,0.33579 0.055,0.1296 0.082,0.26706 0.082,0.41237 0,0.14924 -0.027,0.28866 -0.082,0.41826 -0.055,0.12961 -0.1296,0.2435 -0.2238,0.34168 -0.094,0.0942 -0.2062,0.16887 -0.3358,0.22386 -0.1296,0.055 -0.2691,0.0825 -0.4183,0.0825 -0.1492,0 -0.2886,-0.0275 -0.4183,-0.0825 -0.1256,-0.055 -0.2376,-0.12961 -0.3357,-0.22386 -0.094,-0.0982 -0.1689,-0.21207 -0.2239,-0.34168 -0.055,-0.1296 -0.082,-0.26902 -0.082,-0.41826 0,-0.14531 0.027,-0.28277 0.082,-0.41237 0.055,-0.1296 0.1296,-0.24154 0.2239,-0.33579 0.098,-0.0943 0.2101,-0.16887 0.3357,-0.22386 0.1297,-0.055 0.2691,-0.0825 0.4183,-0.0825 z" />
  </g>
</svg>
